<svg width="17" height="9" viewBox="0 0 17 9" fill="none" xmlns="http://www.w3.org/2000/svg">
<path d="M4.0957 9H2.68359V1.62891H0.175781V0.433594H6.59766V1.62891H4.0957V9Z" fill="#929496"/>
<path d="M11.6074 9L9.14062 1.8457H9.08789C9.09961 2.00586 9.11328 2.22461 9.12891 2.50195C9.14453 2.7793 9.1582 3.07617 9.16992 3.39258C9.18164 3.70898 9.1875 4.01172 9.1875 4.30078V9H7.91016V0.433594H9.88477L12.2578 7.27148H12.293L14.748 0.433594H16.7168V9H15.375V4.23047C15.375 3.96875 15.3789 3.68555 15.3867 3.38086C15.3984 3.07617 15.4102 2.78711 15.4219 2.51367C15.4375 2.24023 15.4492 2.02148 15.457 1.85742H15.4102L12.8496 9H11.6074Z" fill="#5795A7"/>
</svg>
